<?xml version="1.0" encoding="UTF-8"?>
<svg version="1.1" xmlns="http://www.w3.org/2000/svg" width="96" height="96">
<path d="M0 0 C1.3569976 -0.01925285 1.3569976 -0.01925285 2.7414093 -0.03889465 C3.72159531 -0.04628159 4.70178131 -0.05366852 5.71166992 -0.0612793 C7.22116463 -0.07338692 7.22116463 -0.07338692 8.76115417 -0.08573914 C10.89381179 -0.09958522 13.02649161 -0.11030502 15.15917969 -0.11816406 C18.41864087 -0.13537398 21.67708714 -0.17925558 24.9362793 -0.22338867 C27.00723537 -0.23351572 29.07820008 -0.24203178 31.14916992 -0.2487793 C32.12328323 -0.26628738 33.09739655 -0.28379547 34.10102844 -0.30183411 C38.46949924 -0.28785319 40.93389156 -0.25081634 44.72216797 2.07861328 C48.32712931 6.04439374 47.7131509 8.99924407 47.62963867 14.17700195 C45.64963867 14.17700195 43.66963867 14.17700195 41.62963867 14.17700195 C41.36151367 13.20762695 41.09338867 12.23825195 40.81713867 11.23950195 C40.42526367 10.22887695 40.03338867 9.21825195 39.62963867 8.17700195 C35.90555957 6.93564225 32.44519721 7.03389508 28.56713867 7.04418945 C27.77944092 7.04323273 26.99174316 7.042276 26.18017578 7.04129028 C24.51586833 7.04061022 22.85155821 7.04245243 21.18725586 7.04663086 C18.63934371 7.05198157 16.09160784 7.04668003 13.54370117 7.0402832 C11.92651328 7.04094402 10.3093255 7.04222524 8.69213867 7.04418945 C7.54829712 7.04115311 7.54829712 7.04115311 6.38134766 7.03805542 C3.19816951 7.05217101 0.6719155 7.16290968 -2.37036133 8.17700195 C-3.65810579 12.04023533 -3.60418926 15.75190732 -3.68676758 19.7824707 C-3.70754868 20.62167557 -3.72832977 21.46088043 -3.7497406 22.32551575 C-3.81510151 25.00509489 -3.87405847 27.68477165 -3.93286133 30.36450195 C-3.97605935 32.18156932 -4.01967406 33.99862683 -4.0637207 35.81567383 C-4.17076913 40.26934995 -4.27207452 44.72312421 -4.37036133 49.17700195 C-6.35036133 49.17700195 -8.33036133 49.17700195 -10.37036133 49.17700195 C-10.46935694 43.14474256 -10.5418904 37.11295768 -10.59008789 31.08007812 C-10.61018332 29.02856203 -10.63746457 26.97710306 -10.67211914 24.92578125 C-10.72072802 21.9742217 -10.74335085 19.02342047 -10.76098633 16.0715332 C-10.78163147 15.15676712 -10.80227661 14.24200104 -10.82354736 13.29951477 C-10.82503648 9.0581748 -10.7553893 6.79646147 -8.47094727 3.12109375 C-5.51413623 0.38456582 -3.92380629 0.04842493 0 0 Z " fill="#000000" transform="translate(22.370361328125,11.822998046875)"/>
<path d="M0 0 C3.06174143 -0.49929937 5.17936624 -0.55196598 7.80761719 1.21582031 C9.75362515 2.94503163 11.56854077 4.75065712 13.375 6.625 C14.01566406 7.24246094 14.65632813 7.85992187 15.31640625 8.49609375 C18.04891444 11.2635594 19.78268409 13.21274235 20.828125 17 C19.56441202 21.57797911 16.73723491 24.13453617 13.375 27.375 C12.75753906 28.01566406 12.14007813 28.65632813 11.50390625 29.31640625 C6.86523438 33.89648438 6.86523438 33.89648438 2.5390625 34.4140625 C1.70117188 34.27742188 0.86328125 34.14078125 0 34 C-0.4375 31.4375 -0.4375 31.4375 0 28 C2.31 25.69 4.62 23.38 7 21 C-7.19 20.67 -21.38 20.34 -36 20 C-36 18.02 -36 16.04 -36 14 C-21.81 13.67 -7.62 13.34 7 13 C4.69 10.69 2.38 8.38 0 6 C-0.4375 2.5625 -0.4375 2.5625 0 0 Z " fill="#000000" transform="translate(64,31)"/>
<path d="M0 0 C1.67542976 0.28604898 3.34385343 0.61781233 5 1 C5.10957031 1.63808594 5.21914063 2.27617188 5.33203125 2.93359375 C5.49058594 3.75988281 5.64914063 4.58617188 5.8125 5.4375 C5.96332031 6.26121094 6.11414063 7.08492188 6.26953125 7.93359375 C6.51058594 8.61550781 6.75164063 9.29742187 7 10 C10.7240791 11.2413597 14.18444146 11.14310687 18.0625 11.1328125 C18.85019775 11.13376923 19.63789551 11.13472595 20.44946289 11.13571167 C22.11377034 11.13639174 23.77808047 11.13454953 25.44238281 11.13037109 C27.99029496 11.12502038 30.53803083 11.13032192 33.0859375 11.13671875 C34.70312539 11.13605794 36.32031317 11.13477671 37.9375 11.1328125 C39.08134155 11.13584885 39.08134155 11.13584885 40.24829102 11.13894653 C43.43146916 11.12483094 45.95772317 11.01409228 49 10 C50.22520264 6.99152582 50.22520264 6.99152582 51 4 C52.98 4 54.96 4 57 4 C57.49029622 11.23186925 57.49029622 11.23186925 55.125 14.9375 C52.17470957 17.80101718 50.62303139 18.12771824 46.62963867 18.17700195 C45.7249736 18.18983719 44.82030853 18.20267242 43.88822937 18.21589661 C42.90804337 18.22328354 41.92785736 18.23067047 40.91796875 18.23828125 C39.40847404 18.25038887 39.40847404 18.25038887 37.8684845 18.26274109 C35.73582689 18.27658717 33.60314706 18.28730697 31.47045898 18.29516602 C28.2109978 18.31237593 24.95255153 18.35625753 21.69335938 18.40039062 C19.6224033 18.41051767 17.55143859 18.41903374 15.48046875 18.42578125 C14.50635544 18.44328934 13.53224213 18.46079742 12.52861023 18.47883606 C8.16013944 18.46485514 5.69574712 18.42781829 1.9074707 16.09838867 C-1.10391203 12.78559787 -1.13646437 10.83408631 -1.125 6.4375 C-1.12757812 5.44621094 -1.13015625 4.45492187 -1.1328125 3.43359375 C-1 1 -1 1 0 0 Z " fill="#000000" transform="translate(13,66)"/>
</svg>
