<?xml version="1.0" standalone="no"?>
<!DOCTYPE svg PUBLIC "-//W3C//DTD SVG 20010904//EN"
 "http://www.w3.org/TR/2001/REC-SVG-20010904/DTD/svg10.dtd">
<svg version="1.0" xmlns="http://www.w3.org/2000/svg"
 width="980.000000pt" height="980.000000pt" viewBox="0 0 980.000000 980.000000"
 preserveAspectRatio="xMidYMid meet">

<g transform="translate(0.000000,980.000000) scale(0.100000,-0.100000)"
fill="white" stroke="none">
<path d="M1629 8643 c-14 -9 -32 -25 -40 -37 -12 -18 -14 -560 -17 -3694 -2
-3342 -1 -3677 14 -3707 9 -19 28 -42 42 -52 26 -17 140 -18 2767 -18 2968 0
2783 -3 2822 54 17 25 18 100 21 1503 l2 1478 296 512 c163 282 379 656 481
832 101 175 187 333 189 350 3 19 -2 45 -13 66 -18 35 -18 36 7 90 50 110 24
255 -61 338 -60 60 -124 86 -209 86 -112 1 -201 -44 -255 -129 -26 -42 -31
-45 -70 -45 -33 0 -49 -6 -71 -27 -16 -16 -87 -130 -159 -255 -71 -126 -132
-228 -135 -228 -3 0 -5 397 -5 882 0 486 -3 894 -8 908 -4 14 -31 50 -60 81
-151 161 -842 885 -908 952 l-77 77 -2264 0 c-2063 -1 -2265 -2 -2289 -17z
m4381 -225 c4 -877 5 -943 22 -966 41 -59 24 -57 516 -60 l452 -3 0 -1025 0
-1026 -79 -136 c-43 -76 -222 -387 -399 -692 l-321 -555 -65 -210 c-135 -437
-136 -441 -126 -476 5 -18 22 -45 37 -61 22 -23 25 -32 16 -47 -6 -9 -23 -41
-38 -70 -33 -63 -30 -110 11 -152 63 -65 145 -43 205 56 30 50 40 59 60 57 57
-7 98 -4 117 9 10 8 120 122 244 255 182 196 234 258 277 333 29 50 54 91 57
91 2 0 4 -533 4 -1185 l0 -1185 -2595 0 -2595 0 0 3530 0 3530 2100 0 c1673 0
2100 -3 2100 -12z m554 -497 c143 -150 263 -277 264 -282 2 -5 -121 -9 -287
-9 l-291 0 0 307 0 306 26 -24 c14 -13 144 -147 288 -298z m1406 -1731 c23
-23 26 -58 7 -84 -13 -17 -16 -17 -65 10 -57 32 -65 54 -30 78 31 22 64 20 88
-4z m-181 -276 c72 -41 131 -80 131 -85 0 -12 -100 -188 -110 -194 -11 -7
-270 144 -270 156 0 5 6 20 14 32 7 12 32 55 55 95 23 39 44 72 46 72 2 0 63
-34 134 -76z m-239 -412 c52 -30 105 -61 117 -68 25 -16 82 87 -697 -1259 -96
-165 -184 -319 -198 -342 l-24 -43 -36 20 c-106 56 -235 136 -233 145 0 6 74
136 163 290 89 154 216 375 283 490 512 887 487 845 509 833 12 -6 64 -36 116
-66z m-1056 -1840 c54 -31 98 -61 96 -67 -3 -12 -239 -269 -252 -274 -17 -6
-68 21 -68 37 0 31 105 362 115 362 5 0 55 -26 109 -58z"/>
<path d="M2444 7646 c-29 -29 -34 -41 -34 -81 0 -40 5 -52 34 -81 l34 -34
1220 0 c769 0 1230 4 1246 10 71 26 86 139 27 192 l-31 28 -1231 0 -1231 0
-34 -34z"/>
<path d="M2444 6886 c-29 -29 -34 -41 -34 -81 0 -40 5 -52 34 -81 l34 -34
1247 0 1247 0 34 34 c29 29 34 41 34 81 0 40 -5 52 -34 81 l-34 34 -1247 0
-1247 0 -34 -34z"/>
<path d="M5398 6903 c-64 -40 -73 -130 -18 -185 l28 -28 462 0 462 0 34 34
c29 29 34 41 34 80 0 36 -6 52 -29 78 l-29 33 -459 2 c-418 3 -460 1 -485 -14z"/>
<path d="M2468 6144 c-35 -18 -58 -62 -58 -109 0 -26 9 -45 34 -73 l34 -37
790 0 c860 0 827 -2 858 57 19 36 18 98 -2 126 -37 54 -11 52 -851 52 -669 -1
-782 -3 -805 -16z"/>
<path d="M4369 6137 c-38 -25 -60 -77 -52 -120 7 -37 54 -83 94 -91 17 -3 447
-6 955 -6 1014 0 981 -2 1017 59 33 57 17 129 -35 161 -32 20 -51 20 -989 20
l-956 0 -34 -23z"/>
<path d="M2473 5385 c-84 -36 -83 -169 1 -209 32 -15 133 -16 1176 -14 l1142
3 34 37 c39 43 45 91 17 139 -37 62 29 59 -1210 59 -938 -1 -1133 -3 -1160
-15z"/>
<path d="M5179 5377 c-21 -14 -39 -38 -48 -63 -13 -37 -12 -44 5 -80 37 -76
19 -74 634 -74 529 0 546 1 578 20 19 12 40 37 49 58 21 50 2 107 -46 139
l-34 23 -552 0 -552 0 -34 -23z"/>
<path d="M2495 4632 c-75 -25 -106 -102 -70 -172 32 -61 16 -60 670 -60 654 0
638 -1 670 60 29 56 14 125 -34 157 -24 17 -71 18 -621 20 -327 1 -604 -2
-615 -5z"/>
<path d="M4255 4633 c-99 -25 -121 -152 -37 -212 l30 -21 877 0 c962 0 918 -3
950 60 21 41 19 92 -6 124 -46 59 -1 56 -936 55 -472 -1 -867 -4 -878 -6z"/>
<path d="M2444 3836 c-29 -29 -34 -41 -34 -81 0 -40 5 -52 34 -81 l34 -34 622
2 622 3 29 33 c23 26 29 42 29 78 0 39 -5 51 -34 80 l-34 34 -617 0 -617 0
-34 -34z"/>
<path d="M4038 3853 c-33 -21 -48 -53 -48 -104 0 -33 7 -48 34 -75 l34 -34
789 0 c852 1 816 -2 854 56 23 35 24 75 4 114 -33 64 18 60 -850 60 -718 -1
-792 -2 -817 -17z"/>
<path d="M2444 3076 c-29 -29 -34 -41 -34 -81 0 -40 5 -52 34 -81 l34 -34 755
0 755 0 31 26 c60 50 58 133 -4 182 l-28 22 -754 0 -755 0 -34 -34z"/>
<path d="M4444 3076 c-29 -29 -34 -41 -34 -81 0 -40 5 -52 34 -81 l34 -34 650
0 650 0 30 28 c17 16 34 41 38 56 11 44 -12 104 -49 126 -31 19 -55 20 -675
20 l-644 0 -34 -34z"/>
<path d="M2463 2330 c-17 -10 -37 -28 -42 -39 -16 -30 -13 -89 6 -122 35 -60
39 -60 673 -57 l575 3 32 23 c64 45 63 139 -2 190 l-28 22 -591 0 c-568 0
-592 -1 -623 -20z"/>
<path d="M4225 2317 c-19 -19 -37 -46 -41 -61 -9 -37 15 -94 49 -120 28 -21
29 -21 1020 -24 546 -2 1012 0 1036 3 65 10 111 58 111 117 0 24 -7 54 -16 66
-38 54 11 52 -1100 52 l-1026 0 -33 -33z"/>
</g>
</svg>
